<svg xmlns="http://www.w3.org/2000/svg" width="48" height="48" viewBox="0 0 48 48">
    <g fill="none" fill-rule="evenodd">
        <g>
            <g>
                <g transform="translate(-369 -11176) translate(0 10649) translate(369 527)">
                    <path fill="#212121" d="M34.751 10.022c2.946 0 5.333 2.388 5.333 5.334v14.222c0 2.945-2.387 5.333-5.333 5.333H18.53l-6 5.333v-5.333h-.889c-2.946 0-5.333-2.388-5.333-5.333V15.356c0-2.946 2.387-5.334 5.333-5.334h23.111zm0-2.666H11.64c-4.418 0-8 3.581-8 8v14.222c-.002 3.735 2.58 6.974 6.222 7.804v2.862c-.001 1.053.616 2.007 1.577 2.438.96.43 2.083.255 2.868-.446l5.244-4.658h15.2c4.418 0 8-3.582 8-8V15.356c0-4.419-3.582-8-8-8z"/>
                    <circle cx="23.64" cy="22.911" r="1.778" fill="#212121"/>
                    <circle cx="32.529" cy="22.911" r="1.778" fill="#212121"/>
                    <circle cx="14.858" cy="22.911" r="1.778" fill="#212121"/>
                </g>
            </g>
        </g>
    </g>
</svg>
