<svg xmlns="http://www.w3.org/2000/svg" width="48" height="48" viewBox="0 0 48 48">
    <g fill="none" fill-rule="evenodd">
        <g>
            <g>
                <g>
                    <path fill-rule="nonzero" d="M0 0H48V48H0z" transform="translate(-1310 -11176) translate(0 10649) translate(1310 527) matrix(1 0 0 -1 0 48)"/>
                    <path fill="#212121" d="M24 6.786c.704.068 1.358.399 1.833.929.599.802.921 1.78.917 2.786v7.43l11 8.358v2.786L25.833 24.43v10.216l4.584 3.715v1.857L24 38.362l-6.417 1.857v-1.857l4.584-3.715V24.431L10.25 29.075v-2.786l11-8.359V10.5c-.004-1.004.318-1.983.917-2.785.475-.53 1.13-.861 1.833-.929zM24 4c-1.433.071-2.784.696-3.777 1.746-1.126 1.32-1.739 3.01-1.723 4.755v6.036L8.6 24.06c-.692.526-1.1 1.352-1.1 2.229v2.786c0 .918.446 1.778 1.194 2.298s1.7.633 2.546.302l8.177-3.185v4.82l-3.548 2.879c-.653.527-1.034 1.327-1.036 2.173v1.857c.002.873.407 1.694 1.095 2.22.688.525 1.579.693 2.407.455L24 41.259l5.665 1.635c.828.238 1.72.07 2.407-.455.688-.526 1.093-1.347 1.095-2.22v-1.857c-.002-.846-.383-1.646-1.036-2.173l-3.548-2.88v-4.82l8.177 3.186c.846.33 1.798.218 2.546-.302.748-.52 1.194-1.38 1.194-2.298v-2.786c0-.877-.408-1.703-1.1-2.23l-9.9-7.522v-6.036c.016-1.745-.597-3.435-1.723-4.755C26.784 4.696 25.433 4.071 24 4z" transform="translate(-1310 -11176) translate(0 10649) translate(1310 527)"/>
                </g>
            </g>
        </g>
    </g>
</svg>
