<svg xmlns="http://www.w3.org/2000/svg" width="48" height="48" viewBox="0 0 48 48">
    <g fill="none" fill-rule="evenodd">
        <g fill-rule="nonzero">
            <g>
                <g>
                    <path d="M0 0H48V48H0z" transform="translate(-880 -11176) translate(0 10649) translate(880 527) matrix(1 0 0 -1 0 48)"/>
                    <path stroke="#212121" stroke-width="3" d="M24 21l18.773 11.562c.878.549 1.14 1.697.585 2.566-.344.54-.944.867-1.589.867H5.89c-1.038 0-1.88-.833-1.88-1.86 0-.639.332-1.232.877-1.573L24 21z" transform="translate(-880 -11176) translate(0 10649) translate(880 527)"/>
                    <path stroke="#212121" stroke-linecap="round" stroke-width="3" d="M19.263 15.256c0-2.35 1.963-4.256 4.385-4.256 2.421 0 4.384 1.906 4.384 4.256 0 3.017-2.27 4.522-4.032 5.744" transform="translate(-880 -11176) translate(0 10649) translate(880 527)"/>
                </g>
            </g>
        </g>
    </g>
</svg>
